<svg width="141" height="24" viewBox="0 0 141 24" fill="none"
  xmlns="http://www.w3.org/2000/svg">
  <g clip-path="url(#clip0)">
    <path d="M16.1962 0.0336914L8.8877 6.73726C8.131 7.43253 7.14635 7.81695 6.1241 7.82169L3.94565 7.82644L3.9386 0.0336914H0V22.3038H2.1479C3.34875 22.3038 4.4697 21.6607 5.0572 20.6047C5.0619 20.5976 5.06425 20.5905 5.06895 20.5858C5.45905 19.8786 5.6541 18.481 5.6165 17.527C5.5319 15.3463 5.1841 14.7792 5.1841 14.7792C5.11125 16.2741 3.56495 16.3548 3.56495 16.3548C4.66475 15.2941 4.0655 14.492 4.0655 14.492C2.11735 15.8921 1.6309 14.3971 1.5933 14.2619C1.6544 14.3141 2.209 14.7815 3.2618 13.3245C4.3757 11.7845 5.8609 9.21698 6.8056 8.5573C7.75265 7.89525 8.65035 7.94983 8.65035 7.94983C8.65035 7.94983 9.16735 7.24269 10.535 6.6542C11.9028 6.07046 12.7793 6.92709 12.7793 6.92709C11.381 8.0661 9.48225 9.93598 9.3765 12.615C9.2919 14.7839 13.9214 18.5047 13.1083 24.0004C13.5947 22.7523 13.7898 21.5017 13.6229 19.9546C13.489 18.7064 12.6923 16.0985 12.6923 16.0985L17.1385 22.3014H22.0547L12.4456 8.97257L22.0547 0.0336914H16.1962Z" fill="url(#paint0_linear)"/>
    <path d="M7.24184 9.62241C6.93164 10.1421 6.93164 10.3011 6.93164 10.3011C6.93164 10.3011 8.01734 10.116 8.31109 8.81323C8.31344 8.81323 7.61784 8.99358 7.24184 9.62241Z" fill="url(#paint1_linear)"/>
    <path d="M35.2323 0L25.9874 18.3215L23.9688 22.3033H28.3867L30.4054 18.3215L35.2323 8.76091L40.0615 18.3215L42.0802 22.3033H46.4982L44.4772 18.3215L35.2323 0Z" fill="url(#paint2_linear)"/>
    <path d="M68.2365 6.05263C68.2365 4.39631 67.5738 2.89899 66.4998 1.7837C65.4259 0.701641 63.943 0.0324707 62.3027 0.0324707H48.3555V22.3358H52.2988V12.0752H56.2421C57.6615 12.0752 58.8929 12.8392 59.5861 13.9877L59.6801 14.18L61.7951 18.354L63.8138 22.3358H68.2318L66.2131 18.354L63.0571 12.0135C63.6563 11.9494 64.225 11.7904 64.7608 11.5365C66.8147 10.5778 68.2365 8.4754 68.2365 6.05263ZM63.1229 7.90115C62.8714 8.02929 62.5871 8.09336 62.3027 8.09336L52.3011 8.12421V4.01427H62.3027C62.996 4.01427 63.4707 4.33224 63.7221 4.58852C63.943 4.81158 64.3214 5.32176 64.3214 6.055C64.3237 6.84994 63.849 7.58318 63.1229 7.90115Z" fill="url(#paint3_linear)"/>
    <path d="M89.5678 11.1505C89.5678 15.1014 86.3812 18.3191 82.4684 18.3191C78.5557 18.3191 75.3691 15.1014 75.3691 11.1505V0H71.4258V11.1505C71.4258 17.2988 76.3796 22.3009 82.4684 22.3009C88.5573 22.3009 93.5111 17.2988 93.5111 11.1505V0H89.5678V11.1505Z" fill="url(#paint4_linear)"/>
    <path d="M116.514 6.05263C116.514 4.39631 115.851 2.89899 114.777 1.7837C113.706 0.701641 112.22 0.0324707 110.58 0.0324707H96.6328V22.3358H100.578V12.0752H104.522C105.941 12.0752 107.173 12.8392 107.866 13.9877L107.96 14.18L110.075 18.354L112.093 22.3358H116.511L114.493 18.354L111.337 12.0135C111.936 11.9494 112.505 11.7904 113.041 11.5365C115.094 10.5778 116.514 8.4754 116.514 6.05263ZM111.403 7.90115C111.151 8.02929 110.867 8.09336 110.582 8.09336L100.578 8.12421V4.01427H110.58C111.273 4.01427 111.748 4.33224 111.999 4.58852C112.22 4.81158 112.599 5.32176 112.599 6.055C112.601 6.84994 112.126 7.58318 111.403 7.90115Z" fill="url(#paint5_linear)"/>
    <path d="M138.982 18.3215L129.737 0L120.489 18.3215L118.471 22.3033H122.889L124.907 18.3215L129.737 8.76091L134.564 18.3215L136.582 22.3033H141L138.982 18.3215Z" fill="url(#paint6_linear)"/>
  </g>
  <defs>
    <linearGradient id="paint0_linear" x1="33.1424" y1="15.7147" x2="14.6939" y2="-4.14777" gradientUnits="userSpaceOnUse">
      <stop stop-color="#E40C5B"/>
      <stop offset="1" stop-color="#FF4C3B"/>
    </linearGradient>
    <linearGradient id="paint1_linear" x1="9.00459" y1="9.7867" x2="7.85999" y2="8.54508" gradientUnits="userSpaceOnUse">
      <stop stop-color="#E40C5B"/>
      <stop offset="1" stop-color="#FF4C3B"/>
    </linearGradient>
    <linearGradient id="paint2_linear" x1="57.8244" y1="14.5927" x2="40.8471" y2="-5.47197" gradientUnits="userSpaceOnUse">
      <stop stop-color="#E40C5B"/>
      <stop offset="1" stop-color="#FF4C3B"/>
    </linearGradient>
    <linearGradient id="paint3_linear" x1="78.2313" y1="14.6252" x2="61.0316" y2="-3.31269" gradientUnits="userSpaceOnUse">
      <stop stop-color="#E40C5B"/>
      <stop offset="1" stop-color="#FF4C3B"/>
    </linearGradient>
    <linearGradient id="paint4_linear" x1="104.614" y1="14.5911" x2="87.586" y2="-5.13879" gradientUnits="userSpaceOnUse">
      <stop stop-color="#E40C5B"/>
      <stop offset="1" stop-color="#FF4C3B"/>
    </linearGradient>
    <linearGradient id="paint5_linear" x1="126.509" y1="14.6252" x2="109.309" y2="-3.31268" gradientUnits="userSpaceOnUse">
      <stop stop-color="#E40C5B"/>
      <stop offset="1" stop-color="#FF4C3B"/>
    </linearGradient>
    <linearGradient id="paint6_linear" x1="152.326" y1="14.5927" x2="135.349" y2="-5.47199" gradientUnits="userSpaceOnUse">
      <stop stop-color="#E40C5B"/>
      <stop offset="1" stop-color="#FF4C3B"/>
    </linearGradient>
    <clipPath id="clip0">
      <rect width="141" height="24" fill="white"/>
    </clipPath>
  </defs>
</svg>
